<svg width="781.02" height="180.001" viewBox="0 0 781.02 180.001" xmlns="http://www.w3.org/2000/svg">
    <g id="svgGroup" stroke-linecap="round" fill-rule="evenodd" font-size="9pt" stroke="#000"
        stroke-width="0.25mm" fill="none" style="stroke:#000;stroke-width:0.25mm;stroke-dasharray:5827 5827;fill:none">
        <path
            d="M 75.96 138.061 Q 70.38 138.061 66.51 134.371 Q 63.295 131.305 62.751 125.568 A 25.945 25.945 0 0 1 62.64 123.121 A 33.568 33.568 0 0 1 63.453 115.956 Q 64.159 112.723 65.478 109.28 A 54.735 54.735 0 0 1 65.52 109.171 A 68.036 68.036 0 0 1 71.02 98.124 A 79.879 79.879 0 0 1 73.44 94.411 Q 78.48 87.121 84.87 81.091 A 60.389 60.389 0 0 1 93.997 73.948 A 52.538 52.538 0 0 1 98.37 71.461 A 34.337 34.337 0 0 1 105.899 68.652 A 28.319 28.319 0 0 1 112.5 67.861 A 22.008 22.008 0 0 1 117.983 68.511 A 16.566 16.566 0 0 1 124.2 71.551 A 11.718 11.718 0 0 1 128.824 80.051 A 15.033 15.033 0 0 1 128.88 81.361 A 12.983 12.983 0 0 1 128.719 83.49 Q 128.534 84.601 128.136 85.46 A 4.77 4.77 0 0 1 126.45 87.481 Q 124.373 88.866 121.177 89.067 A 17.804 17.804 0 0 1 120.06 89.101 Q 120.42 87.661 120.69 85.951 Q 120.96 84.241 120.96 82.801 A 14.486 14.486 0 0 0 120.54 79.233 A 11.367 11.367 0 0 0 118.98 75.691 Q 117.214 73.041 113.156 72.755 A 14.454 14.454 0 0 0 112.14 72.721 A 15.958 15.958 0 0 0 106.253 73.894 Q 104.218 74.696 102.156 76.048 A 27.769 27.769 0 0 0 101.88 76.231 A 42.643 42.643 0 0 0 96.2 80.844 A 56.952 56.952 0 0 0 91.8 85.591 Q 86.94 91.441 83.16 98.281 A 81.569 81.569 0 0 0 78.812 107.391 A 69.301 69.301 0 0 0 77.22 111.781 A 50.894 50.894 0 0 0 75.822 116.954 Q 75.06 120.561 75.06 123.661 A 15.012 15.012 0 0 0 75.246 126.135 Q 76.01 130.681 79.92 130.681 Q 84.06 130.681 88.92 126.811 Q 93.78 122.941 98.91 116.911 Q 104.04 110.881 108.72 104.401 Q 113.4 97.921 117 92.521 A 17.53 17.53 0 0 1 117.232 92.181 Q 117.751 91.441 117.9 91.441 Q 118.931 91.612 120.536 92.112 A 40.75 40.75 0 0 1 120.69 92.161 A 11.638 11.638 0 0 1 122.46 92.876 A 9.336 9.336 0 0 1 123.66 93.601 Q 124.92 94.501 124.92 95.941 Q 124.92 97.3 123.779 99.484 A 22.263 22.263 0 0 1 123.3 100.351 Q 121.68 103.141 119.7 106.741 Q 117.72 110.341 116.1 114.031 A 21.058 21.058 0 0 0 114.993 117.173 Q 114.48 119.138 114.48 120.961 A 10.546 10.546 0 0 0 115.431 125.289 A 12.886 12.886 0 0 0 115.92 126.271 A 4.9 4.9 0 0 0 117.666 128.144 Q 118.879 128.881 120.6 128.881 Q 124.481 128.881 130.311 124.349 A 56.796 56.796 0 0 0 133.38 121.771 Q 139.029 116.699 144.77 108.011 A 134.587 134.587 0 0 0 148.603 101.827 A 210.79 210.79 0 0 0 150.03 96.301 Q 151.605 89.853 151.868 84.655 A 40.284 40.284 0 0 0 151.92 82.621 A 7.444 7.444 0 0 1 152.812 81.754 Q 153.797 80.934 155.316 80.114 A 23.515 23.515 0 0 1 155.34 80.101 A 10.244 10.244 0 0 1 159.339 78.878 A 9.928 9.928 0 0 1 160.2 78.841 Q 161.798 78.841 162.853 79.347 A 3.414 3.414 0 0 1 163.89 80.101 Q 165.06 81.361 165.06 83.521 Q 165.06 85.78 163.801 91.146 A 121.459 121.459 0 0 1 163.71 91.531 Q 162.36 97.201 160.38 104.041 Q 163.98 98.281 168.57 92.251 A 109.681 109.681 0 0 1 177.416 81.974 A 100.418 100.418 0 0 1 178.2 81.181 A 63.027 63.027 0 0 1 183.581 76.359 A 48.858 48.858 0 0 1 188.37 72.991 Q 193.5 69.841 198.36 69.841 A 11.889 11.889 0 0 1 201.221 70.161 A 7.008 7.008 0 0 1 206.01 73.891 Q 208.08 77.941 208.08 83.521 A 45.678 45.678 0 0 1 207.612 89.921 A 54.478 54.478 0 0 1 207.09 92.971 A 111.01 111.01 0 0 1 205.747 98.877 A 90.682 90.682 0 0 1 204.84 102.151 Q 203.58 106.381 202.5 108.901 Q 206.28 102.061 210.87 95.671 A 53.012 53.012 0 0 1 216.133 89.381 A 42.084 42.084 0 0 1 220.86 85.231 Q 226.26 81.181 232.38 81.181 A 15.131 15.131 0 0 1 235.268 81.436 Q 238.756 82.116 240.39 84.601 A 13.601 13.601 0 0 1 242.482 90.303 A 17.585 17.585 0 0 1 242.64 92.701 Q 242.64 97.234 241.12 102.613 A 51.201 51.201 0 0 1 241.02 102.961 A 333.332 333.332 0 0 1 237.797 113.434 A 306.027 306.027 0 0 1 237.69 113.761 A 42.381 42.381 0 0 0 236.682 117.327 Q 236.287 119.021 236.115 120.529 A 19.641 19.641 0 0 0 235.98 122.761 Q 235.98 125.101 237.15 126.991 Q 238.187 128.665 240.706 128.856 A 8.915 8.915 0 0 0 241.38 128.881 A 11.383 11.383 0 0 0 247.507 127.043 Q 249.105 126.043 250.628 124.499 A 21.95 21.95 0 0 0 250.83 124.291 A 50.958 50.958 0 0 0 255.592 118.5 A 66.422 66.422 0 0 0 259.02 113.131 A 143.791 143.791 0 0 0 263.324 105.094 A 119.146 119.146 0 0 0 264.146 103.397 A 116.754 116.754 0 0 1 265.01 100.6 A 141.604 141.604 0 0 1 266.76 95.491 A 96.145 96.145 0 0 1 272.197 83.209 A 88.762 88.762 0 0 1 272.61 82.441 Q 275.589 76.966 278.928 73.292 A 32.105 32.105 0 0 1 279.72 72.451 A 18.003 18.003 0 0 1 281.891 70.537 Q 283.123 69.627 284.335 69.141 A 7.383 7.383 0 0 1 287.1 68.581 Q 288.72 68.581 289.89 69.571 A 3.153 3.153 0 0 1 290.895 71.193 Q 291.039 71.72 291.058 72.354 A 6.467 6.467 0 0 1 291.06 72.541 Q 291.06 74.701 288.27 79.561 Q 285.873 83.737 282.744 88.977 A 949.987 949.987 0 0 1 281.7 90.721 Q 277.92 97.021 275.13 103.951 Q 272.34 110.881 272.34 117.181 A 30.507 30.507 0 0 0 272.459 119.981 Q 272.713 122.728 273.513 124.384 A 5.212 5.212 0 0 0 274.5 125.821 Q 276.66 127.981 281.16 127.981 Q 285.823 127.981 290.956 124.428 A 35.213 35.213 0 0 0 294.21 121.861 A 37.467 37.467 0 0 0 298.565 117.209 Q 302.722 112.026 307.15 103.765 A 157.813 157.813 0 0 0 307.528 103.055 A 85.793 85.793 0 0 1 307.851 101.548 A 118.299 118.299 0 0 1 309.24 95.941 Q 312.48 84.061 317.79 70.921 Q 323.1 57.781 329.4 45.271 A 342.781 342.781 0 0 1 336.488 31.909 A 273.011 273.011 0 0 1 342 22.501 A 181.791 181.791 0 0 1 346.401 15.661 Q 350.209 10.041 353.61 6.121 A 44.015 44.015 0 0 1 355.807 3.755 Q 359.228 0.354 361.517 0.034 A 3.345 3.345 0 0 1 361.98 0.001 A 3.188 3.188 0 0 1 364.316 1.016 Q 364.744 1.448 365.113 2.064 A 7.4 7.4 0 0 1 365.22 2.251 Q 366.402 4.36 367.108 7.26 A 28.102 28.102 0 0 1 367.2 7.651 A 31.707 31.707 0 0 1 367.693 10.286 Q 367.92 11.903 367.92 13.321 A 26.079 26.079 0 0 1 367.659 16.83 Q 367.123 20.75 365.49 26.011 A 118.586 118.586 0 0 1 362.985 33.206 Q 361.595 36.842 359.852 40.798 A 203.24 203.24 0 0 1 358.65 43.471 A 175.876 175.876 0 0 1 351.124 58.017 A 199.647 199.647 0 0 1 348.21 62.911 Q 342.18 72.721 335.07 81.721 A 105.951 105.951 0 0 1 325.39 92.448 A 89.491 89.491 0 0 1 320.04 97.201 A 118.819 118.819 0 0 0 318.538 105.21 A 106.698 106.698 0 0 0 318.33 106.651 A 67.969 67.969 0 0 0 317.768 112.615 A 57.43 57.43 0 0 0 317.7 115.381 A 39.84 39.84 0 0 0 317.857 119.045 Q 318.198 122.722 319.28 125.05 A 9.699 9.699 0 0 0 319.68 125.821 A 7.155 7.155 0 0 0 321.481 127.934 Q 323.172 129.241 325.62 129.241 Q 329.999 129.241 334.304 125.735 A 23.788 23.788 0 0 0 335.25 124.921 A 47.158 47.158 0 0 0 340.166 119.696 A 63.293 63.293 0 0 0 344.25 114.031 A 95.764 95.764 0 0 0 349.687 104.431 A 53.637 53.637 0 0 1 349.808 103.874 A 69.689 69.689 0 0 1 350.37 101.521 Q 352.08 94.861 354.6 88.561 A 80.583 80.583 0 0 1 356.516 84.139 Q 357.577 81.888 358.669 79.999 A 41.008 41.008 0 0 1 359.82 78.121 Q 362.363 74.222 364.268 73.995 A 1.967 1.967 0 0 1 364.5 73.981 Q 365.168 73.981 366.84 74.444 A 36.354 36.354 0 0 1 367.11 74.521 Q 369 75.061 370.71 76.051 A 6.442 6.442 0 0 1 371.413 76.516 Q 372.42 77.292 372.42 78.121 A 26.01 26.01 0 0 0 371.373 79.776 Q 370.261 81.676 369 84.39 A 88.228 88.228 0 0 0 368.82 84.781 Q 366.84 89.101 364.95 94.411 Q 363.06 99.721 361.8 104.761 A 51.213 51.213 0 0 0 361.036 108.321 Q 360.54 111.144 360.54 113.401 Q 360.54 116.641 361.98 118.621 A 4.367 4.367 0 0 0 364.037 120.135 Q 365.275 120.601 367.02 120.601 A 8.535 8.535 0 0 0 369.874 120.072 Q 372.126 119.274 374.67 117.271 Q 378.768 114.045 382.866 109.045 A 75.104 75.104 0 0 0 383.13 108.721 Q 387.36 103.501 390.96 97.561 Q 391.5 95.581 391.95 93.511 Q 392.4 91.441 392.76 89.281 A 12.793 12.793 0 0 1 393.378 87.282 Q 394.075 85.515 395.37 83.431 A 6.78 6.78 0 0 1 400.338 80.218 A 10.5 10.5 0 0 1 401.94 80.101 Q 402.84 80.101 403.74 80.191 Q 404.64 80.281 405.72 80.641 A 16.795 16.795 0 0 1 405.626 82.263 Q 405.392 84.631 404.569 88.7 A 174.484 174.484 0 0 1 404.01 91.351 Q 402.701 97.345 400.548 104.87 A 345.996 345.996 0 0 1 399.15 109.621 A 271.508 271.508 0 0 1 393.259 126.942 A 305.631 305.631 0 0 1 391.68 131.041 A 45.947 45.947 0 0 0 401.084 126.057 A 62.255 62.255 0 0 0 408.24 120.331 A 47.797 47.797 0 0 0 416.385 110.361 A 65.053 65.053 0 0 0 417.048 109.259 A 38.558 38.558 0 0 1 417.241 107.595 Q 417.656 104.692 418.549 102.326 A 17.139 17.139 0 0 1 420.57 98.461 A 21.926 21.926 0 0 1 425.118 93.666 A 19.071 19.071 0 0 1 429.66 91.081 A 31.961 31.961 0 0 1 434.845 89.478 A 24.263 24.263 0 0 1 439.92 88.921 Q 435.06 94.141 432.54 100.441 Q 430.02 106.741 430.02 113.041 Q 430.02 119.701 432.99 125.461 A 22.066 22.066 0 0 0 440.6 133.818 A 27.14 27.14 0 0 0 442.08 134.731 Q 447.411 137.788 455.201 138.182 A 46.697 46.697 0 0 0 457.56 138.241 Q 465.66 138.241 473.4 135.271 A 32.136 32.136 0 0 0 482.172 130.283 A 29.07 29.07 0 0 0 486.09 126.451 A 20.771 20.771 0 0 0 490.852 115.229 A 27.553 27.553 0 0 0 491.04 111.961 A 25.316 25.316 0 0 0 490.126 105.022 A 20.713 20.713 0 0 0 487.08 98.641 A 39.594 39.594 0 0 0 479.609 90.763 A 46.992 46.992 0 0 0 476.91 88.741 A 163.817 163.817 0 0 0 465.423 81.456 A 180.369 180.369 0 0 0 463.68 80.461 Q 456.66 76.501 450.45 72.091 A 42.564 42.564 0 0 1 442.83 65.222 A 37.902 37.902 0 0 1 440.28 61.921 Q 436.32 56.161 436.32 48.061 Q 436.32 40.501 439.92 32.221 Q 443.52 23.941 450.27 16.561 Q 457.02 9.181 466.47 4.591 A 45.948 45.948 0 0 1 482.434 0.236 A 56.031 56.031 0 0 1 487.62 0.001 A 34.366 34.366 0 0 1 492.804 0.362 Q 499.217 1.344 502.265 4.99 A 10.522 10.522 0 0 1 502.38 5.131 A 18.402 18.402 0 0 1 506.174 13.744 A 25.192 25.192 0 0 1 506.52 18.001 A 42.961 42.961 0 0 1 505.809 25.602 A 57.045 57.045 0 0 1 504.27 31.951 Q 502.02 39.421 498.78 46.171 Q 496.3 51.339 494.03 55.293 A 87.699 87.699 0 0 1 492.66 57.601 Q 490.276 57.071 488.915 55.809 A 5.322 5.322 0 0 1 488.07 54.811 A 8.236 8.236 0 0 1 486.846 51.54 A 10.877 10.877 0 0 1 486.72 49.861 A 21.419 21.419 0 0 1 487.03 46.346 Q 487.429 43.954 488.34 41.221 Q 489.96 36.361 492.03 31.141 Q 494.1 25.921 495.72 20.971 A 37.154 37.154 0 0 0 496.769 17.112 Q 497.198 15.087 497.305 13.258 A 20.487 20.487 0 0 0 497.34 12.061 A 9.676 9.676 0 0 0 497.061 9.671 A 6.745 6.745 0 0 0 495.18 6.391 Q 493.34 4.627 488.885 4.366 A 27.837 27.837 0 0 0 487.26 4.321 Q 478.8 4.321 471.6 8.281 Q 464.4 12.241 459 18.451 A 53.161 53.161 0 0 0 452.782 27.183 A 46.205 46.205 0 0 0 450.63 31.501 A 41.643 41.643 0 0 0 448.763 36.652 Q 447.973 39.425 447.749 41.957 A 22.293 22.293 0 0 0 447.66 43.921 A 19.115 19.115 0 0 0 448.674 50.242 A 16.836 16.836 0 0 0 451.53 55.351 A 36.838 36.838 0 0 0 456.919 60.698 A 47.537 47.537 0 0 0 461.52 63.991 Q 467.64 67.861 474.57 71.731 Q 481.5 75.601 487.62 80.281 Q 493.74 84.961 497.61 91.351 A 26.004 26.004 0 0 1 500.829 99.86 A 36.421 36.421 0 0 1 501.48 106.921 Q 501.48 116.281 497.34 123.391 Q 493.2 130.501 486.27 135.361 Q 479.34 140.221 471.06 142.741 Q 462.78 145.261 454.5 145.261 A 53.823 53.823 0 0 1 454.349 145.26 A 48.28 48.28 0 0 1 436.14 141.751 Q 427.5 138.241 422.19 131.041 A 26.588 26.588 0 0 1 417.566 120.338 A 37.05 37.05 0 0 1 416.95 115.52 A 39.623 39.623 0 0 1 415.53 117.271 Q 410.04 123.661 403.2 128.251 A 103.023 103.023 0 0 1 394.3 133.616 A 86.523 86.523 0 0 1 389.7 135.901 Q 385.02 147.421 379.53 157.501 Q 374.906 165.991 369.899 171.736 A 51.92 51.92 0 0 1 368.01 173.791 Q 363.794 178.133 359.446 179.439 A 13.027 13.027 0 0 1 355.68 180.001 A 14.104 14.104 0 0 1 350.838 179.188 A 12.859 12.859 0 0 1 347.76 177.571 A 7.873 7.873 0 0 1 344.416 171.8 A 11.547 11.547 0 0 1 344.34 170.461 A 19.634 19.634 0 0 1 345.396 163.948 A 17.822 17.822 0 0 1 347.22 160.201 A 30.962 30.962 0 0 1 351.837 154.62 A 38.786 38.786 0 0 1 354.96 151.921 A 74.213 74.213 0 0 1 361.239 147.559 A 93.312 93.312 0 0 1 366.12 144.721 Q 372.42 141.301 379.26 137.881 Q 381.78 131.221 384.39 123.031 A 220.803 220.803 0 0 0 387.241 113.276 A 283.982 283.982 0 0 0 389.34 104.941 A 102.424 102.424 0 0 1 382.604 114.645 A 81.23 81.23 0 0 1 377.01 121.051 Q 371.599 126.61 365.639 127.591 A 15.856 15.856 0 0 1 363.06 127.801 A 15.842 15.842 0 0 1 356.936 126.544 A 18.423 18.423 0 0 1 356.31 126.271 A 13.025 13.025 0 0 1 351.025 121.801 A 15.563 15.563 0 0 1 350.82 121.501 Q 348.85 118.545 348.677 114.093 A 22.443 22.443 0 0 1 348.66 113.221 A 36.409 36.409 0 0 1 348.672 112.439 A 123.167 123.167 0 0 1 348.423 112.859 Q 345.274 118.101 341.913 122.272 A 62.38 62.38 0 0 1 338.58 126.091 A 42.628 42.628 0 0 1 338.448 126.229 Q 330.949 134.056 322.463 134.899 A 20.858 20.858 0 0 1 320.4 135.001 A 17.668 17.668 0 0 1 316.193 134.533 A 10.791 10.791 0 0 1 309.33 129.691 A 20.931 20.931 0 0 1 306.661 122.997 Q 306.062 120.27 306.006 117.117 A 36.908 36.908 0 0 1 306 116.461 A 56.85 56.85 0 0 1 306.163 112.414 A 66.361 66.361 0 0 1 305.612 113.433 Q 302.034 119.834 297.274 124.38 A 39.5 39.5 0 0 1 295.47 126.001 Q 285.66 134.281 275.04 134.281 A 17.727 17.727 0 0 1 271.004 133.85 Q 268.091 133.169 266.058 131.411 A 10.677 10.677 0 0 1 264.6 129.871 Q 261.18 125.461 261.18 119.161 A 29.104 29.104 0 0 1 261.348 116.177 A 103.942 103.942 0 0 1 260.28 117.991 A 49.963 49.963 0 0 1 254.397 125.941 A 41.949 41.949 0 0 1 249.75 130.321 A 22.185 22.185 0 0 1 243.039 134.104 A 19.897 19.897 0 0 1 236.52 135.181 A 16.2 16.2 0 0 1 233.081 134.84 Q 229.365 134.032 227.34 131.311 A 14.53 14.53 0 0 1 224.566 124.052 A 18.735 18.735 0 0 1 224.46 122.041 Q 224.46 117.541 225.81 113.041 Q 227.16 108.541 228.51 104.221 Q 229.657 100.552 229.83 97.532 A 18.405 18.405 0 0 0 229.86 96.481 Q 229.86 93.132 228.459 91.653 A 3.542 3.542 0 0 0 228.24 91.441 A 5.901 5.901 0 0 0 226.643 90.407 A 5.039 5.039 0 0 0 224.64 90.001 Q 220.786 90.001 216.338 95.15 A 37.099 37.099 0 0 0 214.83 97.021 A 222.806 222.806 0 0 0 211.204 101.971 Q 206.877 108.034 201.06 116.821 A 61.223 61.223 0 0 0 196.841 124.175 A 55.257 55.257 0 0 0 196.2 125.551 Q 194.22 129.961 192.42 133.561 Q 191.442 133.561 190.13 133.394 A 34.04 34.04 0 0 1 188.82 133.201 A 16.134 16.134 0 0 1 186.533 132.653 A 12.956 12.956 0 0 1 184.95 132.031 Q 184.052 131.605 183.625 131.055 A 1.745 1.745 0 0 1 183.24 129.961 Q 183.24 128.701 184.95 123.931 Q 186.66 119.161 188.91 112.771 Q 191.16 106.381 192.87 99.811 Q 194.58 93.241 194.58 88.561 Q 194.58 86.348 194.063 84.747 A 7.254 7.254 0 0 0 193.59 83.611 Q 192.6 81.721 190.08 81.721 A 8.533 8.533 0 0 0 187.202 82.272 Q 184.755 83.151 181.831 85.434 A 37.693 37.693 0 0 0 180.54 86.491 Q 175.745 90.59 170.684 96.882 A 118.22 118.22 0 0 0 169.02 99.001 Q 163.08 106.741 157.77 116.011 A 116.776 116.776 0 0 0 151.088 129.577 A 101.887 101.887 0 0 0 149.22 134.461 A 12.409 12.409 0 0 1 147.904 134.385 Q 146.723 134.258 145.26 133.921 Q 142.998 133.399 141.325 132.54 A 12.329 12.329 0 0 1 141.21 132.481 Q 140.036 131.862 139.668 131.244 A 1.094 1.094 0 0 1 139.5 130.681 A 3.166 3.166 0 0 1 139.567 130.127 Q 139.855 128.605 141.39 124.291 A 364.449 364.449 0 0 0 142.884 120.004 Q 143.538 118.092 144.244 115.968 A 696.381 696.381 0 0 0 144.479 115.263 A 58.586 58.586 0 0 1 141.48 119.341 Q 135.54 126.721 128.79 130.861 A 30.852 30.852 0 0 1 123.143 133.617 A 22.244 22.244 0 0 1 115.56 135.001 A 17.706 17.706 0 0 1 111.828 134.633 Q 109.527 134.137 107.821 132.97 A 9.45 9.45 0 0 1 105.75 131.041 A 14.69 14.69 0 0 1 103.316 126.698 A 13.044 13.044 0 0 1 102.6 122.401 Q 102.6 121.39 102.758 120.144 A 25.465 25.465 0 0 1 102.78 119.971 Q 102.96 118.621 103.14 117.181 Q 98.066 124.025 93.572 128.626 A 55.665 55.665 0 0 1 89.01 132.841 A 26.436 26.436 0 0 1 84.18 136.022 Q 80.123 138.061 75.96 138.061 Z M 517.5 130.681 A 20.994 20.994 0 0 0 517.791 131.476 Q 519.725 136.441 522.9 136.441 Q 524.81 136.441 526.616 134.373 A 13.562 13.562 0 0 0 527.76 132.841 Q 530.1 129.241 532.44 123.571 Q 534.78 117.901 537.39 111.601 Q 540 105.301 542.97 99.631 A 52.752 52.752 0 0 1 543.344 98.93 Q 546.165 93.736 549.54 90.361 A 14.725 14.725 0 0 1 550.922 89.137 A 10.715 10.715 0 0 1 557.64 86.761 A 8.314 8.314 0 0 1 557.73 86.761 A 6.595 6.595 0 0 1 562.5 88.741 A 4.854 4.854 0 0 1 562.79 89.057 Q 563.994 90.496 564.341 93.105 A 17.506 17.506 0 0 1 564.48 95.401 A 30.253 30.253 0 0 1 564.213 99.355 A 38.195 38.195 0 0 1 563.13 104.581 Q 561.78 109.441 560.34 114.121 A 41.476 41.476 0 0 0 560.068 115.044 Q 558.9 119.177 558.9 122.581 A 14.488 14.488 0 0 0 558.916 123.256 A 11.017 11.017 0 0 0 562.05 130.681 A 9.404 9.404 0 0 0 564.127 132.288 Q 565.722 133.202 567.785 133.604 A 18.487 18.487 0 0 0 571.32 133.921 Q 578.34 133.921 584.82 129.781 A 41.403 41.403 0 0 0 590.658 125.247 A 51.909 51.909 0 0 0 596.7 118.531 A 69.489 69.489 0 0 0 598.668 115.804 A 76.65 76.65 0 0 0 599.618 114.377 A 46.806 46.806 0 0 0 599.401 116.059 A 29.104 29.104 0 0 0 599.22 119.161 Q 599.22 125.461 602.64 129.871 A 10.677 10.677 0 0 0 604.098 131.411 Q 606.131 133.169 609.044 133.85 A 17.727 17.727 0 0 0 613.08 134.281 Q 623.7 134.281 633.51 126.001 A 39.5 39.5 0 0 0 635.314 124.38 Q 640.074 119.834 643.652 113.433 A 66.361 66.361 0 0 0 643.994 112.805 A 423.624 423.624 0 0 1 642.941 118.062 A 280.134 280.134 0 0 1 641.16 126.091 Q 639.844 131.609 638.499 136.33 A 162.707 162.707 0 0 1 636.39 143.191 Q 633.96 150.481 631.53 157.411 A 201.875 201.875 0 0 0 631.374 157.859 Q 630.198 161.239 629.001 165.06 A 334.77 334.77 0 0 0 626.58 173.161 A 0.451 0.451 0 0 0 626.582 173.193 Q 626.605 173.513 627.056 174.637 A 38.693 38.693 0 0 0 627.3 175.231 Q 628.02 176.941 629.37 178.471 A 6.752 6.752 0 0 0 629.822 178.938 Q 630.96 180.001 632.16 180.001 A 3.507 3.507 0 0 0 632.2 180 A 2.943 2.943 0 0 0 634.32 179.101 Q 635.586 177.976 637.346 173.774 A 73.889 73.889 0 0 0 638.37 171.181 Q 640.193 166.321 642.319 159.385 A 380.431 380.431 0 0 0 643.77 154.531 Q 646.74 144.361 649.98 131.851 Q 653.22 119.341 656.46 105.841 Q 657.422 103.489 658.924 100.789 A 75.989 75.989 0 0 1 661.23 96.931 Q 664.38 91.981 668.43 87.391 A 47.607 47.607 0 0 1 671.014 84.68 A 39.827 39.827 0 0 1 677.07 79.831 A 20.749 20.749 0 0 1 679.948 78.264 A 15.683 15.683 0 0 1 686.34 76.861 A 12.251 12.251 0 0 1 688.412 77.028 A 7.967 7.967 0 0 1 694.17 80.911 A 16.5 16.5 0 0 1 696.152 86.086 A 22.764 22.764 0 0 1 696.6 90.721 A 32.391 32.391 0 0 1 696.147 96.092 A 37.861 37.861 0 0 1 693.63 104.581 Q 690.66 111.601 685.44 117.361 Q 680.22 123.121 673.65 126.631 Q 667.08 130.141 659.88 130.141 A 66.847 66.847 0 0 0 659.194 130.144 Q 657.817 130.158 656.73 130.231 Q 656.071 130.275 655.734 130.469 A 0.631 0.631 0 0 0 655.38 131.041 Q 655.38 131.918 657.282 132.796 A 14.467 14.467 0 0 0 658.26 133.201 A 14.065 14.065 0 0 0 660.215 133.766 Q 661.421 134.027 662.847 134.156 A 33.182 33.182 0 0 0 665.82 134.281 A 40.235 40.235 0 0 0 666.404 134.276 A 34.365 34.365 0 0 0 682.92 129.961 Q 690.66 125.641 696.33 118.711 A 63.178 63.178 0 0 0 696.856 118.059 A 56.37 56.37 0 0 0 705.15 103.951 A 47.259 47.259 0 0 0 707.248 97.488 A 35.451 35.451 0 0 0 708.3 89.101 Q 708.3 79.921 703.17 74.251 A 16.854 16.854 0 0 0 697.087 69.89 A 18.039 18.039 0 0 0 690.12 68.581 Q 683.1 68.581 677.16 72.721 A 43.769 43.769 0 0 0 676.606 73.113 A 46.234 46.234 0 0 0 666.63 82.981 A 97.019 97.019 0 0 0 663.403 87.545 A 79.086 79.086 0 0 0 658.98 95.041 A 391.781 391.781 0 0 0 660.13 89.757 Q 660.661 87.229 661.104 84.93 A 210.087 210.087 0 0 0 662.04 79.741 Q 663.12 73.261 663.12 70.741 A 8.899 8.899 0 0 0 662.741 68.149 A 9.76 9.76 0 0 0 661.14 65.071 Q 659.717 63.195 656.899 62.667 A 13.17 13.17 0 0 0 654.48 62.461 A 12.771 12.771 0 0 0 654.418 62.461 Q 652.313 62.471 651.78 63.181 A 2.158 2.158 0 0 0 651.662 63.356 Q 651.36 63.853 651.19 64.681 A 9.253 9.253 0 0 0 651.06 65.521 A 1155.101 1155.101 0 0 1 651.046 65.647 Q 648.533 87.163 646.02 101.701 A 590.88 590.88 0 0 1 645.893 102.438 A 157.813 157.813 0 0 1 645.19 103.765 Q 640.762 112.026 636.605 117.209 A 37.467 37.467 0 0 1 632.25 121.861 A 35.213 35.213 0 0 1 628.996 124.428 Q 623.863 127.981 619.2 127.981 Q 614.7 127.981 612.54 125.821 A 5.212 5.212 0 0 1 611.553 124.384 Q 610.753 122.728 610.499 119.981 A 30.507 30.507 0 0 1 610.38 117.181 Q 610.38 110.881 613.17 103.951 Q 615.96 97.021 619.74 90.721 A 949.987 949.987 0 0 0 620.784 88.977 Q 623.913 83.737 626.31 79.561 Q 629.1 74.701 629.1 72.541 A 6.467 6.467 0 0 0 629.098 72.354 Q 629.079 71.72 628.935 71.193 A 3.153 3.153 0 0 0 627.93 69.571 Q 626.76 68.581 625.14 68.581 A 7.383 7.383 0 0 0 622.375 69.141 Q 621.163 69.627 619.931 70.537 A 18.003 18.003 0 0 0 617.76 72.451 A 32.105 32.105 0 0 0 616.968 73.292 Q 613.629 76.966 610.65 82.441 A 88.762 88.762 0 0 0 610.237 83.209 A 96.145 96.145 0 0 0 604.8 95.491 A 141.604 141.604 0 0 0 603.05 100.6 A 116.754 116.754 0 0 0 602.312 102.971 A 76.261 76.261 0 0 1 594.9 114.751 A 80.139 80.139 0 0 1 594.063 115.823 Q 591.801 118.671 589.52 120.995 A 46.902 46.902 0 0 1 584.73 125.281 Q 581.664 127.647 578.952 128.6 A 10.535 10.535 0 0 1 575.46 129.241 A 6.626 6.626 0 0 1 575.279 129.238 A 5.064 5.064 0 0 1 571.59 127.621 Q 570.06 126.001 570.06 122.401 Q 570.06 117.901 572.04 113.041 A 251.843 251.843 0 0 0 572.164 112.737 A 274.3 274.3 0 0 0 575.91 102.961 Q 577.8 97.741 577.8 92.161 Q 577.8 88.201 576.45 84.511 Q 575.1 80.821 572.13 78.391 Q 570.205 76.815 567.408 76.261 A 16.927 16.927 0 0 0 564.12 75.961 Q 559.26 75.961 554.94 78.391 Q 550.62 80.821 546.75 85.231 A 58.495 58.495 0 0 0 543.45 89.365 A 72.631 72.631 0 0 0 539.46 95.491 A 103.326 103.326 0 0 0 537.367 99.252 A 121.24 121.24 0 0 0 533.07 108.271 Q 530.1 115.201 527.58 122.581 A 30.413 30.413 0 0 1 527.458 121.61 A 36.734 36.734 0 0 1 527.31 119.881 Q 527.22 118.441 527.22 116.461 A 68.538 68.538 0 0 1 527.228 115.42 Q 527.263 113.134 527.448 110.566 A 119.806 119.806 0 0 1 527.94 105.391 Q 528.66 99.181 530.19 92.701 A 88.238 88.238 0 0 1 531.65 87.272 A 68.922 68.922 0 0 1 533.88 81.001 A 50.136 50.136 0 0 0 540.329 76.361 A 67.968 67.968 0 0 0 546.3 70.651 Q 552.42 64.081 557.64 56.161 Q 562.86 48.241 566.82 40.051 A 131.364 131.364 0 0 0 570.157 32.59 A 99.173 99.173 0 0 0 573.03 24.661 Q 574.437 20.161 574.964 16.504 A 28.719 28.719 0 0 0 575.28 12.421 A 20.311 20.311 0 0 0 575.049 9.393 A 24.626 24.626 0 0 0 573.93 4.951 A 10.292 10.292 0 0 0 573.766 4.51 Q 573.395 3.585 572.902 2.91 A 4.193 4.193 0 0 0 569.34 1.081 Q 565.38 1.081 559.98 7.201 A 71.497 71.497 0 0 0 557.156 10.621 Q 555.058 13.32 552.858 16.604 A 157.651 157.651 0 0 0 548.46 23.581 A 220.929 220.929 0 0 0 543.157 33.006 A 277.189 277.189 0 0 0 536.49 46.441 Q 530.64 59.041 525.96 72.181 Q 521.28 85.321 518.4 97.201 A 131.213 131.213 0 0 0 517.203 102.619 Q 515.52 111.116 515.52 117.721 A 46.54 46.54 0 0 0 515.842 123.291 Q 516.312 127.191 517.47 130.591 A 31.746 31.746 0 0 0 517.5 130.681 Z M 11.998 144.766 A 29.706 29.706 0 0 0 15.48 145.261 Q 15.66 135.181 18.45 123.121 Q 21.24 111.061 25.2 97.201 A 38.788 38.788 0 0 0 25.255 97.036 Q 25.782 95.429 26.584 92.543 A 285.59 285.59 0 0 0 27.18 90.361 Q 28.44 85.681 30.06 80.461 Q 31.073 77.198 31.874 74.498 A 308.632 308.632 0 0 0 32.76 71.461 A 1083.238 1083.238 0 0 0 37.263 71.371 Q 44.254 71.217 48.87 71.011 A 177.016 177.016 0 0 0 50.012 70.956 Q 55.231 70.688 58.32 70.201 A 23.133 23.133 0 0 0 60.215 69.825 Q 62.301 69.314 63.63 68.491 Q 65.52 67.321 66.96 65.161 Q 63.619 65.068 59.871 64.736 A 163.464 163.464 0 0 1 52.47 63.901 Q 44.46 62.821 35.46 62.281 Q 38.52 52.921 41.58 43.471 Q 44.64 34.021 47.52 25.651 Q 49.32 20.419 50.909 16.137 A 258.58 258.58 0 0 1 52.74 11.341 A 229.301 229.301 0 0 1 53.264 11.387 Q 57.18 11.736 60.709 12.188 A 142.522 142.522 0 0 1 67.59 13.231 A 121.102 121.102 0 0 0 67.88 13.282 Q 72.216 14.043 75.476 14.286 A 38.158 38.158 0 0 0 78.3 14.401 Q 82.98 14.401 87.48 11.881 Q 91.98 9.361 98.64 1.801 A 55.053 55.053 0 0 1 98.438 1.856 A 50.487 50.487 0 0 1 92.25 3.151 A 42.677 42.677 0 0 1 89.266 3.466 A 55.296 55.296 0 0 1 85.32 3.601 A 106.838 106.838 0 0 1 83.73 3.589 A 116.915 116.915 0 0 1 67.95 2.251 A 114.156 114.156 0 0 0 66.834 2.087 A 123.688 123.688 0 0 0 49.5 0.901 A 84.927 84.927 0 0 0 40.785 1.337 A 68.427 68.427 0 0 0 24.57 4.951 A 54.224 54.224 0 0 0 15.605 9.08 A 39.204 39.204 0 0 0 6.66 16.111 Q 0 23.221 0 32.581 A 18.464 18.464 0 0 0 0.31 36.039 A 13.348 13.348 0 0 0 2.88 41.851 A 10.682 10.682 0 0 0 4.402 43.431 Q 5.968 44.758 8.134 45.6 A 19.844 19.844 0 0 0 11.88 46.621 A 46.126 46.126 0 0 1 11.099 44.178 A 38.284 38.284 0 0 1 10.08 39.691 A 39.875 39.875 0 0 1 9.711 36.656 A 50.746 50.746 0 0 1 9.54 32.401 Q 9.54 24.841 11.88 19.981 Q 14.22 15.121 20.52 12.781 A 24.073 24.073 0 0 1 21.472 12.45 Q 27.665 10.441 38.34 10.441 Q 40.14 10.441 41.85 10.531 A 68.879 68.879 0 0 1 41.904 10.533 A 74.9 74.9 0 0 1 45.36 10.801 Q 40.14 21.781 34.83 35.011 Q 29.52 48.241 24.48 62.101 A 65.965 65.965 0 0 0 18.682 62.507 A 49.657 49.657 0 0 0 12.78 63.541 Q 7.56 64.801 4.41 67.411 Q 1.26 70.021 0.9 74.701 Q 6.66 73.801 10.26 73.351 Q 12.96 73.013 15.002 72.777 A 286.709 286.709 0 0 1 16.29 72.631 Q 18.72 72.361 20.88 72.181 Q 16.74 83.341 12.69 94.501 Q 8.64 105.661 5.94 115.111 A 92.896 92.896 0 0 0 4.652 120.116 Q 3.24 126.355 3.24 131.041 A 32.219 32.219 0 0 0 3.308 133.16 Q 3.446 135.254 3.867 137.04 A 15.802 15.802 0 0 0 5.22 140.761 A 5.677 5.677 0 0 0 6.59 142.447 Q 8.437 144.023 11.998 144.766 Z M 739.62 72.901 L 739.62 70.741 Q 739.62 64.081 741.87 61.291 A 10.36 10.36 0 0 1 743.157 59.942 Q 743.954 59.255 744.782 58.896 A 4.625 4.625 0 0 1 746.64 58.501 Q 747.603 58.501 748.244 58.823 A 2.134 2.134 0 0 1 748.8 59.221 A 2.654 2.654 0 0 1 749.267 59.835 A 2.087 2.087 0 0 1 749.52 60.841 A 4.575 4.575 0 0 1 749.487 61.358 Q 749.419 61.948 749.213 62.811 A 28.493 28.493 0 0 1 748.98 63.721 A 13.345 13.345 0 0 0 748.651 65.357 Q 748.533 66.196 748.481 67.168 A 29.913 29.913 0 0 0 748.44 68.761 A 34.916 34.916 0 0 0 749.101 75.351 A 47.981 47.981 0 0 0 750.78 81.631 Q 753.12 88.561 755.46 96.211 Q 757.8 103.861 757.8 112.141 Q 757.8 114.481 757.53 116.731 A 30.633 30.633 0 0 1 757.003 119.826 A 26.434 26.434 0 0 1 756.72 120.961 A 24.11 24.11 0 0 0 765.765 117.366 A 30.34 30.34 0 0 0 768.6 115.291 A 29.902 29.902 0 0 0 772.565 111.283 Q 774.31 109.18 776.019 106.515 A 73.873 73.873 0 0 0 779.4 100.621 L 781.02 102.421 A 37.975 37.975 0 0 1 777.677 109.677 A 27.058 27.058 0 0 1 770.76 117.451 Q 763.92 122.581 755.82 123.841 A 24.661 24.661 0 0 1 752.731 129.728 A 19.269 19.269 0 0 1 746.73 135.181 Q 740.52 138.781 732.78 138.781 A 31.405 31.405 0 0 1 727.386 138.346 Q 722.621 137.514 719.37 135.091 A 21.065 21.065 0 0 1 714.162 129.586 A 19.587 19.587 0 0 1 712.35 126.001 A 30.657 30.657 0 0 1 710.379 117.563 A 28.261 28.261 0 0 1 710.28 115.201 A 32.716 32.716 0 0 1 710.407 112.216 Q 710.684 109.204 711.565 107.249 A 8.956 8.956 0 0 1 711.72 106.921 A 14.26 14.26 0 0 1 712.994 104.818 Q 714.001 103.456 715.23 102.601 A 22.269 22.269 0 0 1 717.131 101.409 Q 718.12 100.86 719.065 100.489 A 13.576 13.576 0 0 1 719.19 100.441 Q 720.716 99.859 721.479 99.278 A 3.166 3.166 0 0 0 721.8 99.001 Q 727.2 93.061 731.7 86.581 Q 736.2 80.101 739.62 72.901 Z M 321.66 91.081 A 112.765 112.765 0 0 0 329.774 81.998 A 136.642 136.642 0 0 0 333.9 76.591 Q 339.84 68.401 344.97 59.581 A 252.687 252.687 0 0 0 351.471 47.708 A 215.445 215.445 0 0 0 354.06 42.481 Q 357.247 35.818 359.268 30.262 A 89.143 89.143 0 0 0 360.18 27.631 A 68.171 68.171 0 0 0 361.225 24.17 Q 362.34 20.048 362.34 17.461 A 11.338 11.338 0 0 0 362.319 16.733 Q 362.242 15.542 361.89 15.121 A 2.801 2.801 0 0 0 361.684 14.897 Q 361.454 14.675 361.25 14.609 A 0.547 0.547 0 0 0 361.08 14.581 A 1.669 1.669 0 0 0 360.295 14.831 Q 359.176 15.454 357.357 17.631 A 45.649 45.649 0 0 0 356.13 19.171 Q 353.772 22.255 350.886 26.76 A 216.098 216.098 0 0 0 347.94 31.501 Q 343.26 39.241 338.4 49.141 A 329.538 329.538 0 0 0 329.406 69.166 A 358.8 358.8 0 0 0 329.13 69.841 A 222.773 222.773 0 0 0 322.497 88.301 A 200.875 200.875 0 0 0 321.66 91.081 Z M 536.22 73.981 A 50.932 50.932 0 0 0 541.499 69.164 A 68.009 68.009 0 0 0 546.03 63.901 Q 550.8 57.781 554.94 50.851 A 186.546 186.546 0 0 0 560.644 40.607 A 163.922 163.922 0 0 0 562.32 37.261 Q 565.56 30.601 567.36 25.201 Q 569.16 19.801 569.16 17.101 A 7.082 7.082 0 0 0 569.152 16.737 Q 569.121 16.142 568.98 15.931 A 0.582 0.582 0 0 0 568.559 15.669 A 0.848 0.848 0 0 0 568.44 15.661 Q 567.252 15.661 563.742 20.064 A 73.741 73.741 0 0 0 563.31 20.611 A 90.877 90.877 0 0 0 560.512 24.407 Q 559.11 26.407 557.582 28.765 A 214.15 214.15 0 0 0 554.4 33.841 Q 549.36 42.121 544.5 52.561 Q 539.64 63.001 536.22 73.981 Z M 745.38 120.781 A 35.011 35.011 0 0 0 745.847 117.737 A 39.507 39.507 0 0 0 745.92 117.001 A 39.179 39.179 0 0 0 746.03 115.414 Q 746.074 114.535 746.091 113.547 A 73.631 73.631 0 0 0 746.1 112.321 Q 746.1 103.861 744.03 95.491 Q 741.96 87.121 740.52 79.741 Q 736.38 86.581 731.79 92.791 Q 728.097 97.788 724.695 101.444 A 65.371 65.371 0 0 1 723.06 103.141 A 30.324 30.324 0 0 0 727.314 109.727 A 40.048 40.048 0 0 0 731.43 113.941 A 29.052 29.052 0 0 0 741.883 119.838 A 36.028 36.028 0 0 0 745.38 120.781 Z M 354.78 174.241 A 3.608 3.608 0 0 0 356.291 173.83 Q 358.518 172.77 362.168 168.967 A 76.46 76.46 0 0 0 363.87 167.131 A 40.062 40.062 0 0 0 367.529 162.284 Q 372.285 155.009 377.46 142.201 Q 370.08 146.161 363.78 150.031 Q 357.803 153.702 354.095 157.941 A 30.034 30.034 0 0 0 353.7 158.401 Q 349.92 162.901 349.92 168.841 Q 349.92 169.859 350.46 171.147 A 12.12 12.12 0 0 0 351 172.261 A 3.627 3.627 0 0 0 353.64 174.139 A 6.04 6.04 0 0 0 354.78 174.241 Z M 738.218 131.306 A 34.919 34.919 0 0 0 738.9 131.041 A 7.243 7.243 0 0 0 741.695 128.972 Q 743.351 127.048 744.48 123.661 Q 736.92 122.221 731.07 117.721 A 50.168 50.168 0 0 1 727.101 114.346 Q 724.14 111.533 722.34 108.721 Q 718.462 108.897 718.382 114.772 A 18.361 18.361 0 0 0 718.38 115.021 A 20.344 20.344 0 0 0 722.25 126.991 A 12.298 12.298 0 0 0 731.126 132.36 A 16.318 16.318 0 0 0 733.14 132.481 Q 735.092 132.481 738.218 131.306 Z M 293.384 51.313 A 9.817 9.817 0 0 0 296.64 51.841 A 11.295 11.295 0 0 0 301.208 50.885 A 13.852 13.852 0 0 0 304.65 48.691 A 15.809 15.809 0 0 0 305.777 47.634 Q 306.755 46.619 307.359 45.576 A 6.811 6.811 0 0 0 308.34 42.121 A 9.63 9.63 0 0 0 308.271 40.935 Q 308.006 38.801 306.72 37.801 A 5.2 5.2 0 0 0 306.024 37.344 Q 305.21 36.898 304.183 36.7 A 9.396 9.396 0 0 0 302.4 36.541 A 14.414 14.414 0 0 0 297.444 37.448 A 19.644 19.644 0 0 0 293.67 39.331 A 15.352 15.352 0 0 0 292.72 39.981 Q 291.58 40.829 290.815 41.761 A 6.389 6.389 0 0 0 289.26 45.901 A 7.249 7.249 0 0 0 289.333 46.948 A 4.706 4.706 0 0 0 291.51 50.401 A 8.911 8.911 0 0 0 293.384 51.313 Z M 631.424 51.313 A 9.817 9.817 0 0 0 634.68 51.841 A 11.295 11.295 0 0 0 639.248 50.885 A 13.852 13.852 0 0 0 642.69 48.691 A 15.809 15.809 0 0 0 643.817 47.634 Q 644.795 46.619 645.399 45.576 A 6.811 6.811 0 0 0 646.38 42.121 A 9.63 9.63 0 0 0 646.311 40.935 Q 646.046 38.801 644.76 37.801 A 5.2 5.2 0 0 0 644.064 37.344 Q 643.25 36.898 642.223 36.7 A 9.396 9.396 0 0 0 640.44 36.541 A 14.414 14.414 0 0 0 635.484 37.448 A 19.644 19.644 0 0 0 631.71 39.331 A 15.352 15.352 0 0 0 630.76 39.981 Q 629.62 40.829 628.855 41.761 A 6.389 6.389 0 0 0 627.3 45.901 A 7.249 7.249 0 0 0 627.373 46.948 A 4.706 4.706 0 0 0 629.55 50.401 A 8.911 8.911 0 0 0 631.424 51.313 Z"
            vector-effect="non-scaling-stroke" />
            <animate
                attributeName="stroke-dashoffset"
                values="5827;0;5827"
                dur="10s"
                repeatCount="indefinite" />
    </g>
</svg>